<svg width="8" height="15" viewBox="0 0 8 15" fill="none" xmlns="http://www.w3.org/2000/svg">
<path d="M0.293302 6.78639C0.105501 6.97424 2.94369e-07 7.229 3.0598e-07 7.49463C3.17591e-07 7.76026 0.105501 8.01501 0.293302 8.20287L6.30385 14.2134C6.49279 14.3959 6.74583 14.4969 7.00849 14.4946C7.27115 14.4923 7.5224 14.387 7.70814 14.2012C7.89387 14.0155 7.99922 13.7642 8.00151 13.5016C8.00379 13.2389 7.90282 12.9859 7.72034 12.7969L2.41803 7.49463L7.72034 2.19232C7.90282 2.00339 8.00379 1.75034 8.00151 1.48768C7.99922 1.22502 7.89387 0.973771 7.70814 0.788037C7.5224 0.602303 7.27115 0.496949 7.00849 0.494666C6.74583 0.492384 6.49279 0.593356 6.30385 0.775834L0.293302 6.78639Z" fill="#1E1E1E"/>
</svg>
