<svg width="8" height="15" viewBox="0 0 8 15" fill="none" xmlns="http://www.w3.org/2000/svg">
<path d="M7.7067 6.78639C7.8945 6.97424 8 7.229 8 7.49463C8 7.76026 7.8945 8.01501 7.7067 8.20287L1.69615 14.2134C1.50721 14.3959 1.25417 14.4969 0.99151 14.4946C0.728852 14.4923 0.477598 14.387 0.291864 14.2012C0.10613 14.0155 0.000776188 13.7642 -0.00150642 13.5016C-0.00378855 13.2389 0.0971827 12.9859 0.279661 12.7969L5.58197 7.49463L0.279662 2.19232C0.0971832 2.00339 -0.00378805 1.75034 -0.0015059 1.48768C0.000776736 1.22502 0.10613 0.973771 0.291864 0.788037C0.477599 0.602303 0.728852 0.496949 0.99151 0.494666C1.25417 0.492384 1.50721 0.593356 1.69615 0.775834L7.7067 6.78639Z" fill="#1E1E1E"/>
</svg>
