<svg width="24" height="25" viewBox="0 0 24 25" fill="none" xmlns="http://www.w3.org/2000/svg">
<mask id="mask0_4934_14512" style="mask-type:alpha" maskUnits="userSpaceOnUse" x="0" y="0" width="24" height="25">
<rect y="0.683777" width="24" height="24" fill="#D9D9D9"/>
</mask>
<g mask="url(#mask0_4934_14512)">
<path d="M17.073 13.1838H5.5C5.35767 13.1838 5.23875 13.136 5.14325 13.0405C5.04775 12.945 5 12.8261 5 12.6838C5 12.5414 5.04775 12.4225 5.14325 12.327C5.23875 12.2315 5.35767 12.1838 5.5 12.1838H17.073L13.3385 8.44926C13.241 8.35176 13.19 8.23701 13.1855 8.10501C13.181 7.97285 13.232 7.85168 13.3385 7.74151C13.4487 7.63118 13.5676 7.5751 13.6953 7.57327C13.8228 7.57127 13.9417 7.62543 14.052 7.73577L18.4345 12.1183C18.5218 12.2056 18.5831 12.2948 18.6182 12.3858C18.6536 12.4768 18.6712 12.5761 18.6712 12.6838C18.6712 12.7914 18.6536 12.8908 18.6182 12.9818C18.5831 13.0728 18.5218 13.1619 18.4345 13.2493L14.052 17.6318C13.9545 17.7293 13.8387 17.7803 13.7048 17.7848C13.5708 17.7893 13.4487 17.7363 13.3385 17.626C13.232 17.5158 13.1778 17.3979 13.176 17.2723C13.174 17.1466 13.2282 17.0286 13.3385 16.9183L17.073 13.1838Z" fill="#F6F8FE"/>
</g>
</svg>
