<svg width="34" height="34" viewBox="0 0 34 34" fill="none" xmlns="http://www.w3.org/2000/svg">
<rect width="34" height="34" rx="8" fill="#1E1E1E"/>
<path d="M21.7035 17.7164V15.9445C21.7035 15.7095 21.6101 15.4842 21.444 15.318C21.2779 15.1519 21.0525 15.0585 20.8176 15.0585H12.402C12.167 15.0585 11.9417 15.1519 11.7756 15.318C11.6094 15.4842 11.5161 15.7095 11.5161 15.9445V22.1463C11.5161 22.3812 11.6094 22.6066 11.7756 22.7727C11.9417 22.9389 12.167 23.0322 12.402 23.0322H20.8176C21.0525 23.0322 21.2779 22.9389 21.444 22.7727C21.6101 22.6066 21.7035 22.3812 21.7035 22.1463V19.9314M14.4749 12.8436L19.4977 11.5324C19.5541 11.5165 19.6132 11.5122 19.6713 11.5197C19.7295 11.5273 19.7855 11.5466 19.836 11.5764C19.8865 11.6062 19.9305 11.6459 19.9652 11.6932C19.9999 11.7404 20.0247 11.7942 20.038 11.8513L20.2861 12.8436M20.3747 17.7164H22.5893C22.8339 17.7164 23.0322 17.9148 23.0322 18.1594V19.4884C23.0322 19.733 22.8339 19.9314 22.5893 19.9314H20.3747C20.1301 19.9314 19.9317 19.733 19.9317 19.4884V18.1594C19.9317 17.9148 20.1301 17.7164 20.3747 17.7164Z" stroke="white" stroke-width="0.75" stroke-linecap="round" stroke-linejoin="round"/>
</svg>
