<svg width="34" height="34" viewBox="0 0 34 34" fill="none" xmlns="http://www.w3.org/2000/svg">
<rect width="34" height="34" rx="8" fill="#1E1E1E"/>
<path d="M12.6923 10H11.0769C10.7913 10 10.5174 10.1135 10.3154 10.3154C10.1135 10.5174 10 10.7913 10 11.0769V12.6923M21.3077 10H22.9231C23.2087 10 23.4826 10.1135 23.6846 10.3154C23.8865 10.5174 24 10.7913 24 11.0769V12.6923M12.6923 24H11.0769C10.7913 24 10.5174 23.8865 10.3154 23.6846C10.1135 23.4826 10 23.2087 10 22.9231V21.3077M21.3077 24H22.9231C23.2087 24 23.4826 23.8865 23.6846 23.6846C23.8865 23.4826 24 23.2087 24 22.9231V21.3077M12.6923 19.6923V21.3077H14.3077M17 21.3077V19.6923H15.3846M21.3077 14.3077H19.6923V12.6923M21.3077 18.0769V16.4615H19.6923M19.6923 19.6923V21.3077H21.3077M13.7692 12.6923H15.9231C16.5178 12.6923 17 13.1745 17 13.7692V15.9231C17 16.5178 16.5178 17 15.9231 17H13.7692C13.1745 17 12.6923 16.5178 12.6923 15.9231V13.7692C12.6923 13.1745 13.1745 12.6923 13.7692 12.6923Z" stroke="white" stroke-linecap="round" stroke-linejoin="round"/>
</svg>
