<svg width="22" height="23" viewBox="0 0 22 23" fill="none" xmlns="http://www.w3.org/2000/svg">
<path d="M2.7498 7.10083C2.97897 6.87166 3.25031 6.75708 3.5638 6.75708C3.8773 6.75708 4.14833 6.87166 4.37689 7.10083L11.0915 13.8154L17.829 7.07791C18.0429 6.86402 18.3102 6.75708 18.6311 6.75708C18.9519 6.75708 19.2269 6.87166 19.4561 7.10083C19.6852 7.33 19.7998 7.60133 19.7998 7.91483C19.7998 8.22833 19.6852 8.49936 19.4561 8.72791L11.7331 16.4279C11.6415 16.5196 11.5422 16.5847 11.4352 16.6232C11.3283 16.6617 11.2137 16.6806 11.0915 16.68C10.9692 16.68 10.8547 16.6607 10.7477 16.6222C10.6408 16.5837 10.5415 16.519 10.4498 16.4279L2.72689 8.705C2.513 8.49111 2.40605 8.22741 2.40605 7.91391C2.40605 7.60041 2.52064 7.32938 2.7498 7.10083Z" fill="#4F4F4F"/>
</svg>
