<svg width="184" height="40" viewBox="0 0 184 40" fill="none" xmlns="http://www.w3.org/2000/svg">
<g clip-path="url(#clip0_4934_14524)">
<path d="M37.9726 13.942C37.6789 13.6482 37.3619 13.387 37.0351 13.1421C37.093 12.7407 37.1333 12.3337 37.1333 11.9164C37.1333 7.19073 33.289 3.34637 28.5633 3.34637C28.1469 3.34637 27.7407 3.38625 27.3397 3.44415C27.0966 3.11907 26.8367 2.80214 26.5416 2.50708C23.2003 -0.834227 17.7631 -0.834227 14.4218 2.50708C14.1263 2.80257 13.8664 3.1195 13.6233 3.44501C13.221 3.38668 12.8131 3.3468 12.395 3.3468C7.66973 3.3468 3.82537 7.19116 3.82537 11.9168C3.82537 12.3341 3.86568 12.7416 3.92358 13.1434C3.59721 13.3883 3.28071 13.649 2.98693 13.9428C-0.354369 17.2845 -0.354369 22.7213 2.98693 26.0626C3.28071 26.3564 3.59721 26.6171 3.92358 26.862C3.86568 27.263 3.8258 27.67 3.8258 28.0869C3.8258 32.8125 7.67016 36.6569 12.3959 36.6569C12.8136 36.6569 13.221 36.6166 13.6233 36.5587C13.8682 36.8851 14.1289 37.2016 14.4227 37.4953C16.0935 39.1662 18.2881 40.0012 20.4826 40.0012C22.6771 40.0012 24.8716 39.1658 26.5425 37.4953C26.8358 37.202 27.0966 36.8855 27.3414 36.5591C27.742 36.6166 28.1481 36.6569 28.5641 36.6569C33.2898 36.6569 37.1342 32.8125 37.1342 28.0869C37.1342 27.67 37.0943 27.2634 37.0364 26.8624C37.3632 26.6176 37.6797 26.3564 37.9739 26.0626C41.3152 22.7209 41.3152 17.2841 37.9739 13.9428L37.9726 13.942ZM28.5633 5.13089C32.3047 5.13089 35.3488 8.17498 35.3488 11.9164C35.3488 11.9945 35.3398 12.0704 35.3372 12.148C34.2706 11.6827 33.1118 11.4322 31.9132 11.4322C30.6017 11.4322 29.3391 11.7342 28.1919 12.2887C29.2739 10.0414 29.3207 7.42189 28.3295 5.14289C28.4076 5.14032 28.4844 5.13089 28.5633 5.13089ZM26.5077 34.5512C24.9792 34.064 23.6888 33.0471 22.8426 31.7194L26.4228 28.1653C27.5104 30.1437 27.5404 32.5509 26.5077 34.5512ZM20.4791 25.2679C20.4075 25.0625 20.3325 24.8588 20.2458 24.6606C20.3247 24.6581 20.4024 24.6491 20.4817 24.6491C20.5593 24.6491 20.6357 24.6576 20.7129 24.6602C20.6262 24.8583 20.5508 25.0621 20.4791 25.2679ZM14.5393 28.1688L18.1161 31.7194C17.2708 33.0458 15.9816 34.0618 14.4553 34.5494C13.4238 32.5505 13.4539 30.1463 14.5393 28.1688ZM14.4548 5.45254C15.9816 5.94016 17.2708 6.95657 18.1165 8.28349L14.5398 11.8341C13.4539 9.857 13.4238 7.45191 14.4548 5.45296V5.45254ZM20.4791 14.7345C20.5508 14.9399 20.6258 15.1432 20.7124 15.3414C20.6352 15.3439 20.5593 15.3525 20.4817 15.3525C20.4024 15.3525 20.3247 15.3439 20.2463 15.3409C20.3329 15.1432 20.4075 14.9395 20.4791 14.7345ZM26.4219 11.8371L22.8422 8.28349C23.6883 6.95529 24.9792 5.93844 26.5082 5.45125C27.5404 7.45148 27.51 9.85915 26.4219 11.8371ZM17.0182 16.869C16.9393 16.6674 16.8475 16.4697 16.7527 16.2733C16.9491 16.3681 17.1464 16.4594 17.348 16.5387C17.2416 16.6528 17.1323 16.7626 17.0182 16.869ZM13.8446 15.2041C14.6371 15.9967 15.1873 16.9393 15.5047 17.9407C14.5719 18.424 13.5161 18.702 12.395 18.702C11.717 18.702 11.0634 18.599 10.4454 18.4133L13.7575 15.1256C13.7858 15.1531 13.8167 15.1758 13.8446 15.2041ZM15.8178 20.2339C15.6201 20.1472 15.4164 20.0726 15.2114 20.001C15.4164 19.9294 15.6201 19.8547 15.8178 19.7681C15.8229 19.9234 15.8229 20.0782 15.8178 20.2339ZM15.5051 22.0621C15.1873 23.064 14.6371 24.007 13.8441 24.8C13.8163 24.8279 13.7858 24.851 13.7575 24.8781L10.4445 21.5891C11.0629 21.403 11.717 21.3005 12.395 21.3005C13.5161 21.3005 14.5728 21.5784 15.5051 22.0621ZM17.0186 23.1339C17.1323 23.2398 17.2416 23.3496 17.348 23.4632C17.1468 23.5417 16.9504 23.6331 16.7544 23.7278C16.8488 23.5319 16.9401 23.3354 17.0186 23.1343V23.1339ZM17.5148 21.2297C17.6319 20.4144 17.6319 19.588 17.5148 18.7727C18.1744 18.2791 18.759 17.6941 19.2526 17.0345C19.6604 17.0933 20.0709 17.1323 20.4821 17.1323C20.8934 17.1323 21.3008 17.0933 21.707 17.0349C22.2006 17.6945 22.7856 18.2795 23.4452 18.7731C23.3281 19.588 23.3281 20.414 23.4452 21.2288C22.786 21.7225 22.2015 22.3066 21.7078 22.9657C20.893 22.8491 20.067 22.8491 19.2526 22.9666C18.759 22.3074 18.1748 21.7229 17.5157 21.2293L17.5148 21.2297ZM23.6112 16.54C23.8123 16.4616 24.0091 16.3702 24.2051 16.2759C24.1108 16.4718 24.0194 16.6683 23.941 16.8694C23.8273 16.763 23.7175 16.6537 23.6112 16.54ZM23.9405 23.1334C24.019 23.3337 24.1099 23.5301 24.2038 23.7253C24.0087 23.6314 23.8123 23.5404 23.612 23.462C23.7179 23.3487 23.8273 23.2394 23.9405 23.1334ZM27.115 24.8C26.322 24.007 25.7718 23.0635 25.454 22.0617C26.3868 21.5784 27.4422 21.3005 28.5633 21.3005C29.2413 21.3005 29.8953 21.4034 30.5138 21.5891L27.2012 24.8776C27.1733 24.8506 27.1429 24.8275 27.115 24.8ZM25.1418 20.2334C25.1366 20.0782 25.1366 19.9238 25.1418 19.7685C25.3391 19.8547 25.5423 19.9294 25.7473 20.001C25.5423 20.0726 25.3391 20.1468 25.1418 20.2334ZM27.115 15.2041C27.1429 15.1762 27.1733 15.1531 27.2016 15.1256L30.5133 18.4129C29.8953 18.5986 29.2413 18.7015 28.5633 18.7015C27.4427 18.7015 26.3872 18.424 25.4544 17.9407C25.7722 16.9393 26.322 15.9971 27.115 15.2041ZM21.7782 11.9164C21.7782 11.2564 21.8777 10.6195 22.0539 10.0157L25.3498 13.2875C25.3253 13.3128 25.3048 13.3403 25.2799 13.3651C24.5002 14.1448 23.5635 14.7075 22.542 15.0317C22.0569 14.0976 21.7782 13.0396 21.7782 11.9164ZM15.684 13.3647C15.6582 13.339 15.6368 13.3107 15.6115 13.2845L18.9048 10.0153C19.0815 10.6191 19.1805 11.256 19.1805 11.916C19.1805 13.0388 18.9022 14.0959 18.4171 15.0296C17.3973 14.7049 16.4619 14.1427 15.6835 13.3643L15.684 13.3647ZM8.7196 17.6118C7.41327 16.7656 6.41401 15.4867 5.93154 13.9758C6.90549 13.4732 7.97552 13.2202 9.0464 13.2202C10.17 13.2202 11.2919 13.5011 12.3032 14.0543L8.7196 17.6118ZM8.71917 22.3911L12.3041 25.9498C10.3283 27.0306 7.92705 27.0584 5.93111 26.0283C6.41358 24.517 7.41284 23.2372 8.7196 22.3911H8.71917ZM19.1805 28.086C19.1805 28.7465 19.081 29.3833 18.9043 29.9872L15.6106 26.7175C15.6359 26.6913 15.6578 26.6626 15.6835 26.6364C16.4619 25.858 17.3973 25.2958 18.4167 24.9716C18.9018 25.9052 19.1805 26.9628 19.1805 28.086ZM25.2799 26.6369C25.3052 26.6622 25.3258 26.6896 25.3506 26.7149L22.0544 29.9872C21.8777 29.3833 21.7782 28.7465 21.7782 28.086C21.7782 26.9624 22.0569 25.9043 22.5424 24.9703C23.5635 25.2945 24.5006 25.8576 25.2799 26.6369ZM32.2391 22.3911C33.5459 23.2372 34.5456 24.517 35.0276 26.0287C33.0317 27.0584 30.6304 27.0306 28.6546 25.9494L32.2391 22.3911ZM32.2391 17.6113L28.6555 14.0539C29.6672 13.5007 30.7891 13.2193 31.9127 13.2193C32.9836 13.2193 34.0532 13.4723 35.0272 13.975C34.5447 15.4859 33.5454 16.7652 32.2391 17.6113ZM15.684 3.7688C16.9654 2.48735 18.6693 1.78143 20.4821 1.78143C22.295 1.78143 23.9984 2.48735 25.2803 3.7688C25.3369 3.82541 25.3849 3.88674 25.4394 3.94464C23.1248 4.85512 21.3038 6.74214 20.48 9.09833C19.6566 6.74342 17.8369 4.85727 15.5244 3.94593C15.5789 3.8876 15.6278 3.82541 15.6848 3.7688H15.684ZM5.60989 11.9164C5.60989 8.17498 8.65356 5.13089 12.395 5.13089C12.4756 5.13089 12.5537 5.14032 12.6339 5.14289C11.6428 7.42275 11.6899 10.0431 12.7728 12.2908C11.6243 11.7346 10.36 11.4322 9.0464 11.4322C7.84729 11.4322 6.68849 11.6827 5.62147 12.148C5.61889 12.0704 5.60989 11.9949 5.60989 11.9164ZM4.24866 24.8C1.60298 22.1543 1.60298 17.8494 4.24866 15.2041C4.30527 15.1475 4.36703 15.099 4.42493 15.0446C5.33627 17.3579 7.22328 19.178 9.57905 20.001C7.22243 20.8244 5.33541 22.6445 4.42407 24.9587C4.36617 24.9047 4.30441 24.8562 4.24823 24.7996L4.24866 24.8ZM12.3954 34.8715C8.65399 34.8715 5.60989 31.8274 5.60989 28.086C5.60989 28.0084 5.61889 27.9329 5.62147 27.8557C6.68849 28.3214 7.84729 28.5719 9.0464 28.5719C10.3579 28.5719 11.62 28.2704 12.7668 27.7159C12.2132 28.8622 11.9117 30.124 11.9117 31.4346C11.9117 32.6337 12.1621 33.7925 12.6279 34.8595C12.5498 34.8621 12.4739 34.8711 12.395 34.8711L12.3954 34.8715ZM25.2799 36.2328C23.9984 37.5142 22.2945 38.2201 20.4817 38.2201C18.6689 38.2201 16.9654 37.5142 15.6835 36.2328C15.6269 36.1761 15.5785 36.1144 15.524 36.0561C17.8365 35.1447 19.6553 33.259 20.4791 30.9041C21.303 33.2603 23.1235 35.1469 25.4377 36.0573C25.3837 36.1152 25.3356 36.1761 25.2794 36.2323L25.2799 36.2328ZM35.3488 28.086C35.3488 31.8274 32.3047 34.8715 28.5633 34.8715C28.4865 34.8715 28.4119 34.8625 28.3356 34.86C28.8013 33.7929 29.0518 32.6337 29.0518 31.4346C29.0518 30.1248 28.7507 28.8644 28.1979 27.7185C29.3434 28.2708 30.6038 28.5719 31.9132 28.5719C33.1118 28.5719 34.2706 28.3214 35.3372 27.8561C35.3398 27.9329 35.3488 28.0084 35.3488 28.086ZM31.3792 20.001C33.7354 19.1776 35.6224 17.3575 36.5338 15.0437C36.5921 15.0982 36.6539 15.1466 36.7109 15.2037C39.3566 17.8494 39.3566 22.1543 36.7109 24.7996C36.6543 24.8562 36.5925 24.9047 36.5342 24.9591C35.6229 22.645 33.7358 20.8244 31.3792 20.001Z" fill="#FFFFFC"/>
<path d="M53.2109 33.5814V1.09338H57.9915V19.6114H58.7339L67.738 10.7004H74.0963L62.5397 21.7927L74.4673 33.5814H68.1557L58.7339 24.0669H57.9915V33.5814H53.2109ZM87.7159 34.2311C85.4266 34.2311 83.3843 33.7671 81.5899 32.839C79.826 31.8796 78.4339 30.5184 77.4128 28.7545C76.3916 26.9905 75.8813 24.9024 75.8813 22.4891V21.7931C75.8813 19.3798 76.3916 17.3067 77.4128 15.5741C78.4339 13.8106 79.826 12.4489 81.5899 11.49C83.3843 10.531 85.4266 10.0511 87.7159 10.0511C90.0052 10.0511 92.0479 10.5306 93.8422 11.49C95.637 12.4489 97.0446 13.8106 98.0657 15.5741C99.0868 17.3067 99.5972 19.3798 99.5972 21.7931V22.4891C99.5972 24.9024 99.0868 26.991 98.0657 28.7545C97.0446 30.518 95.637 31.8796 93.8422 32.839C92.0479 33.7671 90.0056 34.2311 87.7159 34.2311ZM87.7159 29.9613C89.8199 29.9613 91.5216 29.2961 92.8211 27.9658C94.1519 26.6045 94.817 24.7325 94.817 22.3498V21.932C94.817 19.5497 94.1673 17.6931 92.8678 16.3628C91.5684 15.0015 89.8508 14.3205 87.7159 14.3205C85.6432 14.3205 83.9414 15.0011 82.6106 16.3628C81.3112 17.6931 80.6614 19.5497 80.6614 21.932V22.3498C80.6614 24.7321 81.3112 26.6041 82.6106 27.9658C83.9414 29.2961 85.6432 29.9613 87.7159 29.9613ZM114.553 34.2311C112.665 34.2311 110.917 33.7671 109.308 32.839C107.699 31.9105 106.4 30.5801 105.41 28.8475C104.45 27.084 103.971 24.9646 103.971 22.4891V21.7931C103.971 19.349 104.45 17.2449 105.41 15.481C106.369 13.7175 107.653 12.3713 109.262 11.4432C110.871 10.5152 112.634 10.0507 114.553 10.0507C116.038 10.0507 117.276 10.2364 118.266 10.6078C119.286 10.9792 120.122 11.4587 120.772 12.0466C121.421 12.6037 121.917 13.1913 122.257 13.8102H123V1.09338H127.78V33.5814H123.092V30.3327H122.35C121.762 31.3225 120.865 32.2201 119.658 33.0243C118.482 33.8288 116.781 34.2311 114.553 34.2311ZM115.898 30.0539C117.972 30.0539 119.673 29.3887 121.004 28.0584C122.365 26.7281 123.046 24.8252 123.046 22.3498V21.932C123.046 19.4879 122.381 17.6005 121.05 16.2697C119.72 14.9394 118.002 14.2742 115.898 14.2742C113.857 14.2742 112.155 14.9394 110.793 16.2697C109.463 17.6 108.798 19.4875 108.798 21.932V22.3498C108.798 24.8252 109.463 26.7281 110.793 28.0584C112.155 29.3887 113.857 30.0539 115.898 30.0539ZM144.842 34.2311C142.521 34.2311 140.495 33.7516 138.762 32.7922C137.029 31.8024 135.668 30.4253 134.678 28.6618C133.719 26.8674 133.239 24.7943 133.239 22.4428V21.8857C133.239 19.5034 133.719 17.4302 134.678 15.6667C135.637 13.8723 136.967 12.4952 138.669 11.5359C140.402 10.5456 142.398 10.0507 144.656 10.0507C146.853 10.0507 148.772 10.5456 150.411 11.5359C152.082 12.4952 153.381 13.841 154.31 15.5737C155.238 17.3063 155.702 19.3331 155.702 21.6537V23.4639H138.112C138.174 25.4749 138.839 27.084 140.108 28.2908C141.407 29.4668 143.017 30.0543 144.935 30.0543C146.729 30.0543 148.075 29.6521 148.973 28.8475C149.901 28.043 150.612 27.1149 151.108 26.0629L155.052 28.1051C154.619 28.9715 153.985 29.8841 153.149 30.8435C152.345 31.8028 151.277 32.607 149.947 33.2567C148.617 33.9069 146.915 34.2311 144.842 34.2311ZM138.159 19.7971H150.829C150.705 18.0645 150.086 16.7187 148.973 15.7594C147.858 14.7691 146.404 14.2742 144.61 14.2742C142.815 14.2742 141.346 14.7691 140.201 15.7594C139.087 16.7187 138.406 18.0645 138.159 19.7971ZM168.093 34.2311C166.453 34.2311 164.984 33.9528 163.684 33.3957C162.415 32.839 161.394 32.019 160.621 30.9357C159.878 29.8528 159.507 28.5379 159.507 26.991C159.507 25.4131 159.878 24.1133 160.621 23.0926C161.394 22.0405 162.431 21.2514 163.73 20.7256C165.061 20.1994 166.562 19.9365 168.232 19.9365H175.194V18.4514C175.194 17.121 174.792 16.0536 173.988 15.249C173.183 14.4444 171.945 14.0422 170.274 14.0422C168.634 14.0422 167.381 14.429 166.515 15.2027C165.649 15.9764 165.077 16.9816 164.798 18.2193L160.342 16.7805C160.714 15.5428 161.302 14.429 162.106 13.4388C162.942 12.4176 164.04 11.5976 165.401 10.9788C166.763 10.3599 168.402 10.0507 170.321 10.0507C173.291 10.0507 175.627 10.8089 177.329 12.325C179.031 13.841 179.882 15.9914 179.882 18.776V28.1974C179.882 29.1254 180.315 29.5895 181.181 29.5895H183.131V33.5809H179.557C178.474 33.5809 177.592 33.3026 176.911 32.7455C176.231 32.1884 175.891 31.4306 175.891 30.4712V30.3318H175.194C174.947 30.7959 174.575 31.3371 174.08 31.9559C173.585 32.5748 172.858 33.1165 171.899 33.5805C170.94 34.0137 169.671 34.2302 168.093 34.2302V34.2311ZM168.789 30.2859C170.708 30.2859 172.255 29.7443 173.431 28.6614C174.606 27.5476 175.194 26.0316 175.194 24.1133V23.6492H168.511C167.242 23.6492 166.221 23.9276 165.448 24.4847C164.674 25.0109 164.288 25.7996 164.288 26.8516C164.288 27.9036 164.69 28.739 165.494 29.3579C166.298 29.9767 167.397 30.2859 168.789 30.2859Z" fill="#FFFFFC"/>
</g>
<defs>
<clipPath id="clip0_4934_14524">
<rect width="182.663" height="40" fill="white" transform="translate(0.473633)"/>
</clipPath>
</defs>
</svg>
