<svg width="25" height="25" viewBox="0 0 25 25" fill="none" xmlns="http://www.w3.org/2000/svg">
<rect x="0.59375" y="1.0564" width="22.9225" height="22.9225" rx="11.4613" fill="white"/>
<rect x="0.59375" y="1.0564" width="22.9225" height="22.9225" rx="11.4613" stroke="black"/>
<path d="M12.7858 10.6981L10.0017 10.6981C9.87105 10.6959 9.74651 10.6424 9.65491 10.5492C9.56331 10.456 9.51199 10.3305 9.51199 10.1998C9.51199 10.0691 9.56331 9.94369 9.65491 9.85049C9.74651 9.75728 9.87105 9.70378 10.0017 9.70151L13.9889 9.70151C14.0544 9.70132 14.1193 9.71409 14.1798 9.73906C14.2404 9.76404 14.2954 9.80074 14.3417 9.84705C14.388 9.89336 14.4247 9.94836 14.4497 10.0089C14.4746 10.0694 14.4874 10.1343 14.4872 10.1998L14.4872 14.187C14.4831 14.3164 14.4287 14.4391 14.3357 14.5291C14.2427 14.6191 14.1183 14.6694 13.9889 14.6694C13.8595 14.6693 13.7351 14.6189 13.6422 14.5288C13.5492 14.4388 13.495 14.316 13.4909 14.1867L13.4909 11.4026L10.1127 14.7808C10.0193 14.8743 9.89249 14.9268 9.76031 14.9268C9.62813 14.9268 9.50136 14.8743 9.4079 14.7808C9.31443 14.6874 9.26192 14.5606 9.26192 14.4284C9.26192 14.2962 9.31443 14.1695 9.4079 14.076L12.7858 10.6981Z" fill="#222222"/>
</svg>
