<svg width="32" height="32" viewBox="0 0 32 32" fill="none" xmlns="http://www.w3.org/2000/svg">
<rect x="1.08154" y="1.125" width="30.0433" height="30.0433" rx="15.0216" stroke="white" stroke-width="0.75"/>
<path d="M17.2751 14.169L13.6915 14.169C13.5233 14.1661 13.363 14.0972 13.2451 13.9773C13.1271 13.8573 13.0611 13.6958 13.0611 13.5276C13.0611 13.3594 13.1271 13.1979 13.2451 13.0779C13.363 12.9579 13.5233 12.8891 13.6915 12.8862L18.8238 12.8862C18.9081 12.8859 18.9916 12.9023 19.0695 12.9345C19.1475 12.9666 19.2183 13.0139 19.2779 13.0735C19.3375 13.1331 19.3847 13.2039 19.4169 13.2818C19.449 13.3598 19.4655 13.4433 19.4652 13.5276L19.4652 18.6599C19.4599 18.8265 19.3899 18.9844 19.2702 19.1003C19.1505 19.2161 18.9904 19.2809 18.8238 19.2809C18.6572 19.2808 18.4971 19.2159 18.3775 19.0999C18.2579 18.984 18.1881 18.826 18.1828 18.6595L18.1828 15.0758L13.8343 19.4243C13.714 19.5446 13.5509 19.6122 13.3807 19.6122C13.2106 19.6122 13.0474 19.5446 12.9271 19.4243C12.8068 19.304 12.7392 19.1408 12.7392 18.9707C12.7392 18.8005 12.8068 18.6373 12.9271 18.517L17.2751 14.169Z" fill="white"/>
</svg>
