<svg width="31" height="31" viewBox="0 0 31 31" fill="none" xmlns="http://www.w3.org/2000/svg">
<rect x="0.206787" y="0.0817871" width="30.7933" height="30.7933" rx="15.3966" fill="#0B0B0B"/>
<path d="M16.7754 13.5009L13.1917 13.5009C13.0235 13.4979 12.8632 13.4291 12.7453 13.3091C12.6274 13.1891 12.5613 13.0276 12.5613 12.8594C12.5613 12.6912 12.6274 12.5297 12.7453 12.4098C12.8632 12.2898 13.0235 12.2209 13.1917 12.218L18.324 12.218C18.4083 12.2178 18.4919 12.2342 18.5698 12.2663C18.6477 12.2985 18.7185 12.3457 18.7781 12.4053C18.8378 12.4649 18.885 12.5358 18.9171 12.6137C18.9493 12.6916 18.9657 12.7751 18.9655 12.8594L18.9655 17.9918C18.9601 18.1583 18.8902 18.3162 18.7705 18.4321C18.6508 18.548 18.4907 18.6128 18.3241 18.6127C18.1574 18.6126 17.9974 18.5478 17.8778 18.4318C17.7581 18.3158 17.6883 18.1579 17.6831 17.9913L17.6831 14.4077L13.3346 18.7561C13.2143 18.8765 13.0511 18.944 12.881 18.944C12.7108 18.944 12.5476 18.8765 12.4273 18.7561C12.307 18.6358 12.2394 18.4727 12.2394 18.3025C12.2394 18.1324 12.307 17.9692 12.4273 17.8489L16.7754 13.5009Z" fill="white"/>
</svg>
