<svg width="32" height="32" viewBox="0 0 32 32" fill="none" xmlns="http://www.w3.org/2000/svg">
<rect x="0.706787" y="0.831787" width="30.7933" height="30.7933" rx="15.3966" fill="white"/>
<path d="M17.2754 14.2507L13.6917 14.2507C13.5235 14.2478 13.3632 14.179 13.2453 14.059C13.1274 13.939 13.0613 13.7775 13.0613 13.6093C13.0613 13.4411 13.1274 13.2796 13.2453 13.1596C13.3632 13.0397 13.5235 12.9708 13.6917 12.9679L18.824 12.9679C18.9083 12.9676 18.9919 12.9841 19.0698 13.0162C19.1477 13.0484 19.2185 13.0956 19.2781 13.1552C19.3378 13.2148 19.385 13.2856 19.4171 13.3636C19.4493 13.4415 19.4657 13.525 19.4655 13.6093L19.4655 18.7417C19.4601 18.9082 19.3902 19.0661 19.2705 19.182C19.1508 19.2979 18.9907 19.3626 18.8241 19.3626C18.6574 19.3625 18.4974 19.2976 18.3777 19.1817C18.2581 19.0657 18.1883 18.9077 18.1831 18.7412L18.1831 15.1575L13.8346 19.506C13.7143 19.6263 13.5511 19.6939 13.381 19.6939C13.2108 19.6939 13.0476 19.6263 12.9273 19.506C12.807 19.3857 12.7394 19.2225 12.7394 19.0524C12.7394 18.8822 12.807 18.7191 12.9273 18.5988L17.2754 14.2507Z" fill="#222222"/>
</svg>
