<svg width="44" height="44" viewBox="0 0 44 44" fill="none" xmlns="http://www.w3.org/2000/svg">
<rect x="0.5" y="2.5" width="43" height="39" rx="19.5" stroke="#0B0B0B"/>
<mask id="mask0_5555_926" style="mask-type:alpha" maskUnits="userSpaceOnUse" x="10" y="10" width="24" height="24">
<rect x="10" y="10" width="24" height="24" fill="#D9D9D9"/>
</mask>
<g mask="url(#mask0_5555_926)">
<path d="M15.25 24.75C15.0375 24.75 14.8594 24.6781 14.7158 24.5342C14.5719 24.3904 14.5 24.2122 14.5 23.9997C14.5 23.7871 14.5719 23.609 14.7158 23.4655C14.8594 23.3218 15.0375 23.25 15.25 23.25H28.75C28.9625 23.25 29.1406 23.3219 29.2843 23.4658C29.4281 23.6096 29.5 23.7878 29.5 24.0003C29.5 24.2129 29.4281 24.391 29.2843 24.5345C29.1406 24.6782 28.9625 24.75 28.75 24.75H15.25ZM15.25 20.75C15.0375 20.75 14.8594 20.6781 14.7158 20.5342C14.5719 20.3904 14.5 20.2122 14.5 19.9997C14.5 19.7871 14.5719 19.609 14.7158 19.4655C14.8594 19.3218 15.0375 19.25 15.25 19.25H28.75C28.9625 19.25 29.1406 19.3219 29.2843 19.4658C29.4281 19.6096 29.5 19.7878 29.5 20.0003C29.5 20.2129 29.4281 20.391 29.2843 20.5345C29.1406 20.6782 28.9625 20.75 28.75 20.75H15.25Z" fill="#0B0B0B"/>
</g>
</svg>
