<svg width="204" height="182" viewBox="0 0 204 182" fill="none" xmlns="http://www.w3.org/2000/svg">
<path fill-rule="evenodd" clip-rule="evenodd" d="M119.826 91.9339L65.0615 -0.843269C52.7513 -21.6983 25.247 -29.0044 3.87845 -17.2981C0.673356 -15.5423 -0.459154 -11.5661 1.38781 -8.4378L89.9697 141.628L119.826 91.9339ZM97.5165 154.412L105.739 168.343C110.611 176.597 119.547 181.209 128.663 181.124C137.779 181.209 146.715 176.597 151.587 168.343L255.939 -8.4378C257.786 -11.5661 256.653 -15.5423 253.447 -17.2981C235.306 -27.2366 212.741 -23.4714 198.808 -9.34592L103.988 148.478C102.394 151.13 100.12 153.139 97.5165 154.412Z" fill="url(#paint0_linear_4482_87)" fill-opacity="0.4"/>
<defs>
<linearGradient id="paint0_linear_4482_87" x1="128.663" y1="-22.875" x2="128.663" y2="181.125" gradientUnits="userSpaceOnUse">
<stop stop-color="#F1EDF5"/>
<stop offset="1" stop-color="#3C82C8" stop-opacity="0.4"/>
</linearGradient>
</defs>
</svg>
