<svg width="125" height="33" viewBox="0 0 125 33" fill="none" xmlns="http://www.w3.org/2000/svg">
<g clip-path="url(#clip0_5616_1048)">
<path fill-rule="evenodd" clip-rule="evenodd" d="M12.7088 22.7008L6.87615 12.7014C5.56503 10.4537 2.63569 9.66629 0.359823 10.928C0.0184635 11.1172 -0.102155 11.5457 0.0945569 11.8829L9.529 28.0567L12.7088 22.7008ZM10.3328 29.4345L11.2085 30.9359C11.7275 31.8256 12.6792 32.3226 13.65 32.3134C14.6209 32.3226 15.5726 31.8256 16.0916 30.9359L27.2056 11.8829C27.4023 11.5457 27.2817 11.1172 26.9402 10.928C25.0081 9.85683 22.6049 10.2626 21.1209 11.785L11.022 28.7949C10.8523 29.0807 10.6101 29.2973 10.3328 29.4345Z" fill="#4F4F4F"/>
<path fill-rule="evenodd" clip-rule="evenodd" d="M35.6283 11.3265C35.6283 10.7746 35.1809 10.3271 34.6289 10.3271H31.6307C31.0789 10.3271 30.6313 10.7746 30.6313 11.3265V22.4865C30.6313 27.914 35.0314 32.3139 40.4587 32.3139C45.8863 32.3139 50.2861 27.914 50.2861 22.4865V11.3265C50.2861 10.7746 49.8387 10.3271 49.2867 10.3271H46.122C45.5702 10.3271 45.1226 10.7746 45.1226 11.3265V22.7363C45.1226 25.3581 42.9974 27.4835 40.3755 27.4835C37.7537 27.4835 35.6283 25.3581 35.6283 22.7363V11.3265Z" fill="#4F4F4F"/>
<path fill-rule="evenodd" clip-rule="evenodd" d="M53.6172 18.6552C53.6172 14.0556 57.3459 10.3269 61.9455 10.3269H65.6099C66.1619 10.3269 66.6093 10.7744 66.6093 11.3263V14.1501C66.6093 14.7021 66.1619 15.1495 65.6099 15.1495H62.2025C59.9027 15.1495 58.0384 17.0139 58.0384 19.3136V31.3142C58.0384 31.8662 57.591 32.3136 57.039 32.3136H54.6166C54.0648 32.3136 53.6172 31.8662 53.6172 31.3142V18.6552Z" fill="#4F4F4F"/>
<path fill-rule="evenodd" clip-rule="evenodd" d="M79.2688 10.3271C73.1974 10.3271 68.2754 15.249 68.2754 21.3205C68.2754 27.3364 73.1076 32.2236 79.1022 32.3127V32.3139H79.106C79.3847 32.3137 79.661 32.3034 79.9345 32.2829C80.3296 32.2532 80.7187 32.2028 81.101 32.1327C83.9005 31.6185 86.329 30.0436 87.9545 27.8402C88.3315 27.3294 87.939 26.6506 87.3041 26.6506H83.6088C83.4204 26.6506 83.2389 26.7159 83.0866 26.8269C82.4602 27.2836 81.7538 27.6375 80.9925 27.8639C80.6466 27.9668 80.2893 28.0433 79.9229 28.0911C79.922 28.0913 79.921 28.0914 79.9202 28.0916C79.652 28.1264 79.379 28.1459 79.1022 28.1492V28.1477C75.4076 28.0593 72.4395 25.0364 72.4395 21.3205C72.4395 17.5488 75.4972 14.4913 79.2688 14.4913C82.491 14.4913 85.192 16.7228 85.9106 19.7246C85.759 19.6793 85.5983 19.6549 85.4317 19.6549H76.7703C75.8505 19.6549 75.1046 20.4006 75.1046 21.3205V22.1533C75.1046 23.0733 75.8505 23.819 76.7703 23.819H82.6001H85.4317C85.4993 23.819 85.5658 23.815 85.6312 23.8072L85.6266 23.819H89.977C90.1635 23.0163 90.2621 22.18 90.2621 21.3205C90.2621 15.249 85.3403 10.3271 79.2688 10.3271Z" fill="#4F4F4F"/>
<path d="M97.9235 0H94.5922C94.0402 0 93.5928 0.447445 93.5928 0.999397V31.3144C93.5928 31.8664 94.0402 32.3138 94.5922 32.3138H97.9235C98.4754 32.3138 98.9229 31.8664 98.9229 31.3144V0.999397C98.9229 0.447445 98.4754 0 97.9235 0Z" fill="#4F4F4F"/>
<path d="M116.061 21.429C116.061 22.9322 114.842 24.1508 113.339 24.1508C111.836 24.1508 110.617 22.9322 110.617 21.429C110.617 19.9259 111.836 18.7073 113.339 18.7073C114.842 18.7073 116.061 19.9259 116.061 21.429Z" fill="#4F4F4F"/>
<path fill-rule="evenodd" clip-rule="evenodd" d="M113.248 10.3269C107.177 10.3269 102.255 15.2488 102.255 21.3203C102.255 27.3918 107.177 32.3136 113.248 32.3136C119.32 32.3136 124.242 27.3918 124.242 21.3203C124.242 15.2488 119.32 10.3269 113.248 10.3269ZM113.248 14.6576C109.569 14.6576 106.586 17.6407 106.586 21.3203C106.586 24.9999 109.569 27.9829 113.248 27.9829C116.928 27.9829 119.911 24.9999 119.911 21.3203C119.911 17.6407 116.928 14.6576 113.248 14.6576Z" fill="#4F4F4F"/>
</g>
<defs>
<clipPath id="clip0_5616_1048">
<rect width="124.258" height="32.3138" fill="white"/>
</clipPath>
</defs>
</svg>
