<svg width="8" height="15" viewBox="0 0 8 15" fill="none" xmlns="http://www.w3.org/2000/svg">
<path d="M0.293302 7.13453C0.105501 7.32239 2.94369e-07 7.57714 3.0598e-07 7.84277C3.17591e-07 8.1084 0.105501 8.36316 0.293302 8.55102L6.30385 14.5616C6.49279 14.744 6.74583 14.845 7.00849 14.8427C7.27115 14.8405 7.5224 14.7351 7.70814 14.5494C7.89387 14.3636 7.99922 14.1124 8.00151 13.8497C8.00379 13.5871 7.90282 13.334 7.72034 13.1451L2.41803 7.84277L7.72034 2.54047C7.90282 2.35153 8.00379 2.09848 8.00151 1.83583C7.99922 1.57317 7.89387 1.32192 7.70814 1.13618C7.5224 0.950448 7.27115 0.845093 7.00849 0.842811C6.74583 0.840529 6.49279 0.941501 6.30385 1.12398L0.293302 7.13453Z" fill="#F6F8FE"/>
</svg>
