<svg width="8" height="15" viewBox="0 0 8 15" fill="none" xmlns="http://www.w3.org/2000/svg">
<path d="M7.7067 7.13453C7.8945 7.32239 8 7.57714 8 7.84277C8 8.1084 7.8945 8.36316 7.7067 8.55102L1.69615 14.5616C1.50721 14.744 1.25417 14.845 0.99151 14.8427C0.728852 14.8405 0.477598 14.7351 0.291864 14.5494C0.10613 14.3636 0.000776188 14.1124 -0.00150642 13.8497C-0.00378855 13.5871 0.0971827 13.334 0.279661 13.1451L5.58197 7.84277L0.279662 2.54047C0.0971832 2.35153 -0.00378805 2.09848 -0.0015059 1.83583C0.000776736 1.57317 0.10613 1.32192 0.291864 1.13618C0.477599 0.950448 0.728852 0.845093 0.99151 0.842811C1.25417 0.840529 1.50721 0.941501 1.69615 1.12398L7.7067 7.13453Z" fill="#F6F8FE"/>
</svg>
