<svg width="400" height="104" viewBox="0 0 400 104" fill="none" xmlns="http://www.w3.org/2000/svg">
<g clip-path="url(#clip0_4969_17809)">
<path fill-rule="evenodd" clip-rule="evenodd" d="M40.911 73.0608L22.135 40.8786C17.9144 33.6445 8.48456 31.1102 1.15831 35.1708C0.0594358 35.7799 -0.328847 37.1591 0.304388 38.2442L30.6748 90.2985L40.911 73.0608ZM33.2623 94.733L36.0813 99.5652C37.7519 102.428 40.8156 104.028 43.9409 103.999C47.0662 104.028 50.1299 102.428 51.8004 99.5652L87.5775 38.2442C88.2107 37.1591 87.8225 35.7799 86.7233 35.1708C80.5035 31.7234 72.7673 33.0294 67.9904 37.9293L35.4811 92.6744C34.9345 93.5943 34.155 94.2913 33.2623 94.733Z" fill="url(#paint0_linear_4969_17809)"/>
<path fill-rule="evenodd" clip-rule="evenodd" d="M114.691 36.4538C114.691 34.6774 113.251 33.2373 111.474 33.2373H101.823C100.046 33.2373 98.6053 34.6774 98.6053 36.4538V72.3713C98.6053 89.8396 112.769 104 130.241 104C147.713 104 161.876 89.8396 161.876 72.3713V36.4538C161.876 34.6774 160.436 33.2373 158.659 33.2373H148.471C146.695 33.2373 145.254 34.6774 145.254 36.4538V73.1754C145.254 81.6134 138.413 88.4538 129.973 88.4538C121.533 88.4538 114.691 81.6134 114.691 73.1754V36.4538Z" fill="#F6F8FE"/>
<path fill-rule="evenodd" clip-rule="evenodd" d="M172.599 60.0405C172.599 45.237 184.602 33.2363 199.409 33.2363H211.205C212.982 33.2363 214.422 34.6764 214.422 36.4528V45.5411C214.422 47.3175 212.982 48.7576 211.205 48.7576H200.236C192.833 48.7576 186.831 54.7579 186.831 62.1596V100.783C186.831 102.559 185.391 103.999 183.614 103.999H175.816C174.04 103.999 172.599 102.559 172.599 100.783V60.0405Z" fill="#F6F8FE"/>
<path fill-rule="evenodd" clip-rule="evenodd" d="M255.174 33.2373C235.629 33.2373 219.785 49.0781 219.785 68.6187C219.785 87.9804 235.34 103.71 254.638 103.996V104H254.65C255.547 104 256.436 103.966 257.317 103.9C258.589 103.805 259.841 103.643 261.072 103.417C270.084 101.762 277.901 96.6934 283.134 89.6021C284.347 87.9579 283.084 85.7734 281.04 85.7734H269.145C268.538 85.7734 267.954 85.9835 267.464 86.3406C265.447 87.8105 263.173 88.9497 260.723 89.6782C259.609 90.0095 258.459 90.2556 257.279 90.4094C257.277 90.41 257.273 90.4105 257.271 90.411C256.408 90.5231 255.529 90.5858 254.638 90.5965V90.5917C242.744 90.307 233.19 80.5782 233.19 68.6187C233.19 56.4797 243.033 46.6394 255.174 46.6394C265.546 46.6394 274.241 53.8213 276.554 63.4825C276.066 63.3367 275.549 63.2579 275.013 63.2579H247.131C244.17 63.2579 241.769 65.658 241.769 68.6187V71.2992C241.769 74.2599 244.17 76.66 247.131 76.66H265.898H275.013C275.231 76.66 275.444 76.6471 275.655 76.6219L275.64 76.66H289.645C290.245 74.0766 290.562 71.3849 290.562 68.6187C290.562 49.0781 274.718 33.2373 255.174 33.2373Z" fill="#F6F8FE"/>
<path d="M315.227 0H304.504C302.727 0 301.286 1.44007 301.286 3.21649V100.784C301.286 102.56 302.727 104 304.504 104H315.227C317.004 104 318.445 102.56 318.445 100.784V3.21649C318.445 1.44007 317.004 0 315.227 0Z" fill="#F6F8FE"/>
<path d="M373.611 68.9676C373.611 73.8057 369.688 77.7277 364.849 77.7277C360.01 77.7277 356.087 73.8057 356.087 68.9676C356.087 64.13 360.01 60.208 364.849 60.208C369.688 60.208 373.611 64.13 373.611 68.9676Z" fill="#F6F8FE"/>
<path fill-rule="evenodd" clip-rule="evenodd" d="M364.559 33.2363C345.014 33.2363 329.17 49.0771 329.17 68.6178C329.17 88.1585 345.014 103.999 364.559 103.999C384.103 103.999 399.947 88.1585 399.947 68.6178C399.947 49.0771 384.103 33.2363 364.559 33.2363ZM364.559 47.1745C352.714 47.1745 343.111 56.7752 343.111 68.6178C343.111 80.4604 352.714 90.0611 364.559 90.0611C376.404 90.0611 386.006 80.4604 386.006 68.6178C386.006 56.7752 376.404 47.1745 364.559 47.1745Z" fill="#F6F8FE"/>
</g>
<defs>
<linearGradient id="paint0_linear_4969_17809" x1="39.4752" y1="68.8242" x2="87.6524" y2="32.9464" gradientUnits="userSpaceOnUse">
<stop stop-color="#06AFF2"/>
<stop offset="1" stop-color="#3DDA73"/>
</linearGradient>
<clipPath id="clip0_4969_17809">
<rect width="400" height="104" fill="white"/>
</clipPath>
</defs>
</svg>
