<svg width="154" height="40" viewBox="0 0 154 40" fill="none" xmlns="http://www.w3.org/2000/svg">
<g clip-path="url(#clip0_1458_9025)">
<path fill-rule="evenodd" clip-rule="evenodd" d="M15.7507 28.1006L8.52198 15.7229C6.89703 12.9405 3.26656 11.9658 0.445948 13.5276C0.0228828 13.7618 -0.126606 14.2923 0.117189 14.7096L11.8098 34.7305L15.7507 28.1006ZM12.806 36.4361L13.8913 38.2946C14.5345 39.3959 15.714 40.0111 16.9172 39.9998C18.1205 40.0111 19.3 39.3959 19.9432 38.2946L33.7173 14.7096C33.9611 14.2923 33.8117 13.7618 33.3885 13.5276C30.9938 12.2016 28.0154 12.7039 26.1763 14.5885L13.6602 35.6443C13.4498 35.9981 13.1497 36.2662 12.806 36.4361Z" fill="white"/>
<path fill-rule="evenodd" clip-rule="evenodd" d="M44.1562 14.0206C44.1562 13.3374 43.6017 12.7835 42.9176 12.7835H39.2017C38.5178 12.7835 37.9631 13.3374 37.9631 14.0206V27.8351C37.9631 34.5536 43.4163 40 50.1428 40C56.8694 40 62.3224 34.5536 62.3224 27.8351V14.0206C62.3224 13.3374 61.7679 12.7835 61.0838 12.7835H57.1615C56.4776 12.7835 55.9229 13.3374 55.9229 14.0206V28.1443C55.9229 31.3897 53.289 34.0206 50.0395 34.0206C46.7903 34.0206 44.1562 31.3897 44.1562 28.1443V14.0206Z" fill="white"/>
<path fill-rule="evenodd" clip-rule="evenodd" d="M66.4509 23.0928C66.4509 17.3991 71.0722 12.7835 76.7726 12.7835H81.3142C81.9983 12.7835 82.5528 13.3374 82.5528 14.0206V17.5161C82.5528 18.1993 81.9983 18.7532 81.3142 18.7532H77.0912C74.2409 18.7532 71.9303 21.061 71.9303 23.9078V38.7629C71.9303 39.4462 71.3758 40 70.6917 40H67.6895C67.0056 40 66.4509 39.4462 66.4509 38.7629V23.0928Z" fill="white"/>
<path fill-rule="evenodd" clip-rule="evenodd" d="M98.2419 12.7835C90.7173 12.7835 84.6172 18.8761 84.6172 26.3918C84.6172 33.8386 90.6061 39.8883 98.0354 39.9986V40H98.0402C98.3855 39.9998 98.728 39.987 99.067 39.9617C99.5566 39.9249 100.039 39.8625 100.513 39.7757C103.982 39.1392 106.992 37.1897 109.007 34.4623C109.474 33.8299 108.987 32.9897 108.2 32.9897H103.621C103.387 32.9897 103.162 33.0705 102.974 33.2078C102.197 33.7732 101.322 34.2113 100.378 34.4915C99.9495 34.619 99.5067 34.7136 99.0525 34.7728C99.0515 34.773 99.0503 34.7732 99.0492 34.7734C98.7169 34.8165 98.3785 34.8406 98.0354 34.8447V34.8429C93.4565 34.7334 89.778 30.9915 89.778 26.3918C89.778 21.7229 93.5676 17.9381 98.2419 17.9381C102.235 17.9381 105.583 20.7004 106.473 24.4163C106.286 24.3602 106.086 24.3299 105.88 24.3299H95.1453C94.0054 24.3299 93.081 25.253 93.081 26.3918V27.4227C93.081 28.5614 94.0054 29.4845 95.1453 29.4845H102.371H105.88C105.964 29.4845 106.046 29.4796 106.127 29.4699L106.121 29.4845H111.513C111.744 28.4909 111.867 27.4557 111.867 26.3918C111.867 18.8761 105.767 12.7835 98.2419 12.7835Z" fill="white"/>
<path d="M121.362 0H117.234C116.55 0 115.995 0.553874 115.995 1.23711V38.7629C115.995 39.4461 116.55 40 117.234 40H121.362C122.046 40 122.601 39.4461 122.601 38.7629V1.23711C122.601 0.553874 122.046 0 121.362 0Z" fill="white"/>
<path d="M143.84 26.526C143.84 28.3868 142.33 29.8953 140.467 29.8953C138.604 29.8953 137.094 28.3868 137.094 26.526C137.094 24.6654 138.604 23.1569 140.467 23.1569C142.33 23.1569 143.84 24.6654 143.84 26.526Z" fill="white"/>
<path fill-rule="evenodd" clip-rule="evenodd" d="M140.354 12.7835C132.83 12.7835 126.73 18.8761 126.73 26.3918C126.73 33.9074 132.83 40 140.354 40C147.879 40 153.979 33.9074 153.979 26.3918C153.979 18.8761 147.879 12.7835 140.354 12.7835ZM140.354 18.1443C135.794 18.1443 132.097 21.8369 132.097 26.3918C132.097 30.9466 135.794 34.6392 140.354 34.6392C144.915 34.6392 148.612 30.9466 148.612 26.3918C148.612 21.8369 144.915 18.1443 140.354 18.1443Z" fill="white"/>
</g>
<defs>
<clipPath id="clip0_1458_9025">
<rect width="154" height="40" fill="white"/>
</clipPath>
</defs>
</svg>
