<svg width="63" height="51" viewBox="0 0 63 51" fill="none" xmlns="http://www.w3.org/2000/svg">
<path fill-rule="evenodd" clip-rule="evenodd" d="M29.3279 28.7022L15.868 5.50794C12.8423 0.294146 6.08234 -1.53235 0.830357 1.39424C0.0426078 1.83319 -0.235741 2.82719 0.218207 3.60927L21.9899 41.1258L29.3279 28.7022ZM23.8448 44.3218L25.8656 47.8045C27.0632 49.868 29.2595 51.021 31.4999 50.9997C33.7404 51.021 35.9367 49.868 37.1342 47.8045L62.7818 3.60927C63.2357 2.82719 62.9574 1.83319 62.1695 1.39424C57.7106 -1.09039 52.1648 -0.149128 48.7403 3.38228L25.4354 42.8381C25.0436 43.5011 24.4848 44.0034 23.8448 44.3218Z" fill="#0B0B0B" style="mix-blend-mode:luminosity"/>
</svg>
