<svg width="149" height="120" viewBox="0 0 149 120" fill="none" xmlns="http://www.w3.org/2000/svg">
<path fill-rule="evenodd" clip-rule="evenodd" d="M69.2197 67.6428L37.4515 13.1807C30.3105 0.938312 14.3555 -3.35056 1.95981 3.52134C0.100562 4.55202 -0.556396 6.88611 0.515012 8.7225L51.9005 96.8144L69.2197 67.6428ZM56.2784 104.319L61.0481 112.497C63.8746 117.342 69.0583 120.049 74.3461 119.999C79.634 120.049 84.8177 117.342 87.6442 112.497L148.177 8.7225C149.249 6.88611 148.592 4.55202 146.732 3.52134C136.209 -2.31279 123.119 -0.10254 115.037 8.18942L60.0325 100.835C59.1078 102.392 57.7889 103.571 56.2784 104.319Z" fill="#6373F7"/>
</svg>
